<?xml version="1.0" encoding="UTF-8"?>
<svg id="Laag_1" data-name="Laag 1" xmlns="http://www.w3.org/2000/svg" viewBox="0 0 1000 184.57">
  <defs>
    <style>
      .cls-1 {
        fill: #3c5060;
      }
    </style>
  </defs>
  <path class="cls-1" d="m182.6,182.11h-56.77c-1.72-.25-2.46-.98-2.95-2.95-2.95-12.78-11.55-66.6-16.22-99.78-.25-1.23-.98-1.72-2.21-1.72s-1.97.49-2.21,1.72c-4.18,33.18-12.29,87.49-15.24,100.27-.74,2.21-1.72,2.46-3.93,2.46H27.77c-1.72-.25-2.46-.98-2.95-2.95C18.68,145.74,1.23,30.47,0,17.45c0-1.47.98-2.46,2.46-2.46h42.52c1.47,0,2.46.98,2.46,2.46,1.97,25.8,9.09,94.86,12.04,115.02.25,1.97.98,2.46,3.2,2.46,1.97,0,2.7-.49,2.95-2.46,3.19-19.66,11.31-82.58,14.75-110.1,0-1.47.98-2.46,2.46-2.46h45.96c1.47,0,2.46.98,2.46,2.46,3.44,27.53,12.29,89.95,15.73,110.1.49,1.97,1.23,2.46,3.2,2.46,2.21,0,2.7-.49,3.2-2.7,2.7-20.15,9.58-89.46,11.55-114.77,0-1.47.98-2.46,2.46-2.46h41.53c1.47,0,2.46.98,2.46,2.46-1.23,14.25-18.43,128.53-24.82,161.96-.49,2.21-1.72,2.7-3.93,2.7Z"/>
  <path class="cls-1" d="m285.08,184.57c-46.69,0-67.09-20.4-67.09-67.58,0-50.38,24.58-68.81,63.16-68.81s53.33,17.2,53.33,56.52c0,4.91-.49,12.53-1.23,17.69s-1.97,6.14-5.65,6.14h-64.64c-.98,0-1.47.25-1.47,1.23,0,17.45,9.34,22.86,28.02,22.86,10.57,0,22.12-1.23,36.62-4.42,1.47-.49,2.7-.25,2.95.98l2.7,26.05c0,1.23-.25,1.72-1.47,2.21-8.11,3.69-26.54,7.13-45.22,7.13Zm-23.35-79.63h33.18c1.72,0,2.7-.49,2.7-5.41,0-13.52-1.97-22.86-17.45-22.86-17.2,0-19.91,11.8-19.91,26.79,0,.98.49,1.47,1.47,1.47Z"/>
  <path class="cls-1" d="m513.39,179.65c0,1.47-.98,2.46-2.46,2.46h-39.08c-1.47,0-2.46-.98-2.46-2.46v-82.82c0-11.55-4.42-15.24-15.97-15.24-4.42,0-9.09.49-12.04.98-1.72.25-1.97,1.23-1.97,2.46v94.62c0,1.47-.98,2.46-2.46,2.46h-38.83c-1.47,0-2.46-.98-2.46-2.46V55.79c0-1.47.98-2.21,2.46-2.46,12.78-2.7,37.6-5.16,57.26-5.16,11.31,0,28.26,1.47,35.14,5.65,1.23.25,2.21.25,3.69-.25,13.76-4.67,27.53-5.41,38.09-5.41,41.04,0,55.3,14.75,55.3,49.15v82.33c0,1.47-.98,2.46-2.46,2.46h-38.83c-1.47,0-2.46-.98-2.46-2.46v-81.1c0-12.29-4.18-16.96-16.71-16.96-4.18,0-8.85.49-11.55.98-1.72.25-2.21,1.23-2.21,2.46v94.62Z"/>
  <path class="cls-1" d="m611.45,34.16c-1.47,0-2.46-.98-2.46-2.46V2.46c0-1.47.98-2.46,2.46-2.46h39.57c1.47,0,2.46.98,2.46,2.46v29.25c0,1.47-.98,2.46-2.46,2.46h-39.57Zm.25,147.95c-1.47,0-2.46-.98-2.46-2.46V53.08c0-1.47.98-2.46,2.46-2.46h39.08c1.47,0,2.46.98,2.46,2.46v126.57c0,1.47-.98,2.46-2.46,2.46h-39.08Z"/>
  <path class="cls-1" d="m752.27,182.11c-1.47,0-2.46-.98-2.46-2.46v-81.1c0-12.78-3.2-16.96-16.47-16.96-4.92,0-8.85.49-11.8.98-1.72.25-1.97,1.23-1.97,2.46v94.62c0,1.47-.98,2.46-2.46,2.46h-38.83c-1.47,0-2.46-.98-2.46-2.46V55.79c0-1.47.98-2.21,2.46-2.46,13.27-2.21,38.83-5.16,58-5.16,43.25,0,57.51,13.52,57.51,49.4v82.08c0,1.47-.98,2.46-2.46,2.46h-39.08Z"/>
  <path class="cls-1" d="m811.26,116.49c0-45.96,16.71-67.83,58-67.83,7.62,0,14.99,1.23,18.19,1.23,1.47,0,1.72-.98,1.72-2.21V3.93c0-1.47.98-2.46,2.46-2.46h38.58c1.47,0,2.46.98,2.46,2.46v172.03c0,.98-.74,1.97-2.46,2.7-9.09,3.93-32.19,5.9-52.1,5.9-54.31,0-66.85-17.69-66.85-68.08Zm77.91-33.91c0-.98-.25-1.47-1.47-1.97-1.97-.74-5.41-1.23-9.34-1.23-16.22,0-21.87,7.37-21.87,37.85s4.42,36.62,21.87,36.62c3.69,0,6.64-.25,9.58-.98.98-.25,1.23-.98,1.23-1.97v-68.32Z"/>
  <path class="cls-1" d="m957.24,182.11c-1.47,0-2.46-.98-2.46-2.46v-38.09c0-1.47.98-2.46,2.46-2.46h40.3c1.47,0,2.46.98,2.46,2.46v38.09c0,1.47-.98,2.46-2.46,2.46h-40.3Z"/>
</svg>